<?xml version="1.0" encoding="UTF-8" ?>
<!DOCTYPE svg PUBLIC "-//W3C//DTD SVG 1.1//EN" "http://www.w3.org/Graphics/SVG/1.1/DTD/svg11.dtd">
<svg width="1000pt" height="1000pt" viewBox="0 0 1000 1000" version="1.1" xmlns="http://www.w3.org/2000/svg">
<path fill="#fefefe" d=" M 0.00 0.00 L 458.70 0.00 C 449.39 1.43 439.99 2.12 430.68 3.49 C 360.29 13.09 292.09 38.10 232.12 76.17 C 227.21 78.76 222.52 81.72 218.23 85.27 C 150.62 131.26 94.42 193.96 56.33 266.34 C 30.59 315.01 13.12 368.00 4.66 422.39 C 2.70 434.44 1.76 446.61 0.00 458.69 L 0.00 0.00 Z" />
<path fill="#010101" d=" M 458.70 0.00 L 541.31 0.00 C 559.55 2.39 577.90 4.12 595.93 7.89 C 665.58 21.27 732.21 49.90 790.00 91.00 C 847.54 131.85 896.37 184.94 932.18 245.75 C 964.80 301.08 986.60 362.74 995.89 426.29 C 997.59 437.37 998.55 448.55 1000.00 459.66 L 1000.00 540.34 C 997.63 560.61 995.50 580.97 991.12 600.94 C 976.95 670.65 947.53 737.19 905.64 794.67 C 863.67 852.35 809.34 901.05 747.26 936.21 C 697.34 964.59 642.49 984.31 585.88 993.96 C 571.11 996.66 556.16 997.98 541.30 1000.00 L 458.69 1000.00 C 445.56 998.11 432.30 997.13 419.23 994.85 C 357.72 984.88 298.13 963.30 244.56 931.47 C 183.00 895.03 129.46 845.17 88.53 786.50 C 47.92 728.38 19.92 661.50 7.08 591.76 C 3.77 574.76 2.07 557.51 0.00 540.33 L 0.00 458.69 C 1.76 446.61 2.70 434.44 4.66 422.39 C 13.12 368.00 30.59 315.01 56.33 266.34 C 94.42 193.96 150.62 131.26 218.23 85.27 C 222.52 81.72 227.21 78.76 232.12 76.17 C 292.09 38.10 360.29 13.09 430.68 3.49 C 439.99 2.12 449.39 1.43 458.70 0.00 Z" />
<path fill="#fefefe" d=" M 541.31 0.00 L 1000.00 0.00 L 1000.00 459.66 C 998.55 448.55 997.59 437.37 995.89 426.29 C 986.60 362.74 964.80 301.08 932.18 245.75 C 896.37 184.94 847.54 131.85 790.00 91.00 C 732.21 49.90 665.58 21.27 595.93 7.89 C 577.90 4.12 559.55 2.39 541.31 0.00 Z" />
<path fill="#fefefe" d=" M 454.91 3.32 C 544.70 -4.89 636.69 11.62 717.72 51.27 C 731.65 58.01 745.25 65.44 758.47 73.48 C 762.26 75.86 766.33 77.89 769.60 81.01 C 753.08 81.58 736.53 81.13 720.00 81.24 C 661.00 81.09 602.00 81.22 542.99 81.17 C 465.67 80.55 388.33 81.10 311.00 80.81 C 284.23 80.74 257.45 80.96 230.68 80.70 C 231.80 79.80 232.93 78.90 234.11 78.09 C 300.36 36.06 376.77 10.22 454.91 3.32 Z" />
<path fill="#fefefe" d=" M 228.03 83.43 C 399.02 83.61 570.01 83.60 741.00 83.76 C 751.54 83.97 762.11 83.32 772.63 84.10 C 772.60 290.73 772.63 497.37 772.62 704.00 C 772.56 772.73 772.74 841.47 772.53 910.20 C 770.20 907.85 768.48 905.01 766.75 902.22 C 591.82 636.49 416.87 370.77 241.96 105.02 C 237.37 97.79 232.21 90.92 228.03 83.43 Z" />
<path fill="#fefefe" d=" M 775.32 84.16 C 834.81 123.61 885.74 175.93 923.46 236.56 C 956.52 289.36 979.36 348.51 990.55 409.79 C 1008.08 505.22 997.29 605.78 959.07 695.03 C 923.76 778.43 865.02 851.63 791.59 904.59 C 786.16 908.06 781.37 912.62 775.40 915.18 C 775.21 638.17 775.39 361.16 775.32 84.16 Z" />
<path fill="#fefefe" d=" M 212.54 92.50 C 216.23 89.91 219.85 87.20 223.79 84.99 C 224.04 179.66 223.66 274.33 223.73 369.00 C 223.68 550.98 223.57 732.97 223.55 914.96 C 163.00 874.87 111.64 821.08 73.85 759.10 C 32.56 691.53 7.84 613.93 2.51 534.92 C -2.16 468.50 6.53 401.13 28.19 338.14 C 61.79 239.59 127.41 152.40 212.54 92.50 Z" />
<path fill="#fefefe" d=" M 226.86 87.69 C 227.86 88.86 228.85 90.04 229.73 91.30 C 314.53 220.15 399.35 348.98 484.16 477.82 C 488.78 485.19 494.09 492.15 498.22 499.81 C 482.83 500.40 467.41 499.59 452.00 500.05 C 425.67 499.97 399.33 499.74 373.01 500.09 C 354.34 499.59 335.67 500.47 317.00 499.91 C 303.00 500.23 289.00 499.86 275.00 500.10 C 258.80 499.51 242.57 500.77 226.38 499.71 C 226.47 426.47 226.41 353.24 226.43 280.00 C 226.70 217.66 226.54 155.33 226.57 92.99 C 226.60 91.22 226.71 89.45 226.86 87.69 Z" />
<path fill="#fefefe" d=" M 228.91 502.81 C 251.93 502.35 274.97 502.75 297.99 502.62 C 364.68 502.62 431.37 502.60 498.06 502.62 C 499.85 502.31 501.15 503.61 502.06 504.98 C 534.96 555.06 567.97 605.07 600.88 655.14 C 602.85 657.99 604.87 660.84 606.33 664.01 C 574.47 739.57 542.47 815.07 510.56 890.61 C 506.94 898.50 504.24 906.83 500.12 914.48 C 493.01 904.59 486.60 894.22 479.84 884.10 C 396.83 758.13 313.85 632.15 230.85 506.19 C 230.17 505.07 229.54 503.94 228.91 502.81 Z" />
<path fill="#fefefe" d=" M 226.39 504.90 C 228.66 507.60 230.62 510.55 232.49 513.54 C 315.11 638.93 397.72 764.33 480.33 889.72 C 486.14 898.97 492.72 907.74 498.12 917.24 C 456.09 917.73 414.04 917.31 372.00 917.45 C 324.99 917.46 277.97 917.42 230.96 917.47 C 229.40 917.41 227.85 917.25 226.31 917.08 C 226.17 779.69 226.39 642.29 226.39 504.90 Z" />
<path fill="#fefefe" d=" M 0.00 540.33 C 2.07 557.51 3.77 574.76 7.08 591.76 C 19.92 661.50 47.92 728.38 88.53 786.50 C 129.46 845.17 183.00 895.03 244.56 931.47 C 298.13 963.30 357.72 984.88 419.23 994.85 C 432.30 997.13 445.56 998.11 458.69 1000.00 L 0.00 1000.00 L 0.00 540.33 Z" />
<path fill="#fefefe" d=" M 991.12 600.94 C 995.50 580.97 997.63 560.61 1000.00 540.34 L 1000.00 1000.00 L 541.30 1000.00 C 556.16 997.98 571.11 996.66 585.88 993.96 C 642.49 984.31 697.34 964.59 747.26 936.21 C 809.34 901.05 863.67 852.35 905.64 794.67 C 947.53 737.19 976.95 670.65 991.12 600.94 Z" />
<path fill="#fefefe" d=" M 608.19 666.84 C 614.97 675.56 620.41 685.25 626.69 694.34 C 673.43 765.28 720.08 836.26 766.84 907.18 C 768.98 910.39 771.38 913.51 772.63 917.22 C 747.10 917.75 721.54 917.29 695.99 917.45 C 633.00 917.45 570.01 917.44 507.02 917.45 C 505.51 917.40 504.01 917.34 502.52 917.27 C 507.81 902.66 514.54 888.62 520.34 874.21 C 549.72 805.12 578.62 735.83 608.19 666.84 Z" />
<path fill="#fefefe" d=" M 231.85 920.24 C 388.90 920.01 545.95 920.21 703.00 920.14 C 724.71 920.21 746.43 920.01 768.15 920.24 C 754.02 929.85 738.94 938.01 723.73 945.75 C 684.62 965.51 642.83 979.86 599.93 988.69 C 545.60 999.77 489.41 1001.62 434.44 994.44 C 370.95 986.09 309.11 965.35 253.52 933.56 C 246.20 929.29 238.73 925.21 231.85 920.24 Z" />
</svg>
