<svg xmlns="http://www.w3.org/2000/svg" version="1" width="800" height="800"><g style="fill:none;stroke-linecap:round;stroke-width:4;stroke:#000"><line x1="687" y1="259" x2="573" y2="240"/><line x1="693" y1="403" x2="651" y2="386"/><line x1="63" y1="483" x2="94" y2="376"/><line x1="765" y1="716" x2="800" y2="655"/><line x1="551" y1="170" x2="577" y2="142"/><line x1="510" y1="508" x2="350" y2="441"/><line x1="666" y1="278" x2="468" y2="198"/><line x1="644" y1="504" x2="701" y2="427"/><line x1="673" y1="745" x2="747" y2="581"/><line x1="697" y1="27" x2="800" y2="13"/><line x1="649" y1="531" x2="749" y2="450"/><line x1="389" y1="29" x2="389" y2="0"/><line x1="413" y1="160" x2="490" y2="89"/><line x1="105" y1="767" x2="135" y2="674"/><line x1="627" y1="800" x2="640" y2="776"/><line x1="621" y1="248" x2="594" y2="137"/><line x1="251" y1="253" x2="231" y2="194"/><line x1="643" y1="409" x2="404" y2="335"/><line x1="733" y1="230" x2="742" y2="116"/><line x1="472" y1="680" x2="365" y2="679"/><line x1="385" y1="800" x2="484" y2="723"/><line x1="402" y1="131" x2="276" y2="21"/><line x1="684" y1="691" x2="701" y2="502"/><line x1="800" y1="221" x2="770" y2="206"/><line x1="544" y1="378" x2="693" y2="332"/><line x1="363" y1="331" x2="361" y2="243"/><line x1="686" y1="662" x2="582" y2="494"/><line x1="130" y1="61" x2="33" y2="55"/><line x1="289" y1="775" x2="391" y2="708"/><line x1="229" y1="344" x2="331" y2="257"/><line x1="456" y1="800" x2="515" y2="636"/><line x1="570" y1="770" x2="656" y2="675"/><line x1="643" y1="299" x2="463" y2="260"/><line x1="118" y1="360" x2="165" y2="308"/><line x1="480" y1="488" x2="588" y2="478"/><line x1="266" y1="504" x2="254" y2="435"/><line x1="549" y1="800" x2="533" y2="766"/><line x1="184" y1="159" x2="98" y2="139"/><line x1="319" y1="596" x2="275" y2="515"/><line x1="51" y1="545" x2="0" y2="426"/><line x1="344" y1="426" x2="383" y2="361"/><line x1="262" y1="479" x2="266" y2="441"/><line x1="415" y1="235" x2="394" y2="69"/><line x1="386" y1="702" x2="502" y2="672"/><line x1="691" y1="704" x2="627" y2="593"/><line x1="73" y1="707" x2="124" y2="706"/><line x1="513" y1="585" x2="534" y2="513"/><line x1="653" y1="637" x2="596" y2="635"/><line x1="357" y1="161" x2="203" y2="71"/><line x1="245" y1="189" x2="192" y2="82"/><line x1="110" y1="472" x2="246" y2="431"/><line x1="397" y1="322" x2="386" y2="211"/><line x1="775" y1="727" x2="713" y2="656"/><line x1="635" y1="434" x2="667" y2="341"/><line x1="648" y1="800" x2="623" y2="726"/><line x1="554" y1="375" x2="392" y2="272"/><line x1="595" y1="244" x2="603" y2="173"/><line x1="104" y1="694" x2="0" y2="620"/><line x1="99" y1="765" x2="116" y2="706"/><line x1="187" y1="800" x2="48" y2="745"/><line x1="403" y1="537" x2="546" y2="511"/><line x1="539" y1="138" x2="446" y2="46"/><line x1="108" y1="706" x2="61" y2="576"/><line x1="544" y1="706" x2="636" y2="582"/><line x1="225" y1="338" x2="174" y2="307"/><line x1="424" y1="800" x2="437" y2="760"/><line x1="687" y1="382" x2="697" y2="299"/><line x1="800" y1="245" x2="718" y2="227"/><line x1="562" y1="544" x2="606" y2="434"/><line x1="258" y1="299" x2="117" y2="253"/><line x1="286" y1="119" x2="274" y2="0"/><line x1="382" y1="75" x2="403" y2="53"/><line x1="237" y1="357" x2="308" y2="303"/><line x1="657" y1="486" x2="742" y2="418"/><line x1="241" y1="266" x2="283" y2="211"/><line x1="415" y1="629" x2="479" y2="564"/><line x1="431" y1="532" x2="350" y2="442"/><line x1="186" y1="686" x2="293" y2="644"/><line x1="676" y1="460" x2="557" y2="382"/><line x1="367" y1="490" x2="339" y2="411"/><line x1="747" y1="581" x2="695" y2="574"/><line x1="406" y1="161" x2="511" y2="151"/><line x1="272" y1="800" x2="360" y2="673"/><line x1="534" y1="653" x2="476" y2="598"/><line x1="126" y1="241" x2="39" y2="190"/><line x1="195" y1="206" x2="145" y2="0"/><line x1="263" y1="237" x2="203" y2="71"/><line x1="0" y1="583" x2="178" y2="563"/><line x1="258" y1="515" x2="91" y2="495"/><line x1="800" y1="256" x2="608" y2="194"/><line x1="252" y1="381" x2="309" y2="306"/><line x1="160" y1="115" x2="106" y2="21"/><line x1="559" y1="40" x2="476" y2="0"/><line x1="476" y1="458" x2="361" y2="262"/><line x1="398" y1="212" x2="212" y2="95"/><line x1="66" y1="489" x2="115" y2="465"/><line x1="539" y1="147" x2="536" y2="64"/><line x1="205" y1="203" x2="191" y2="72"/><line x1="122" y1="378" x2="0" y2="372"/><line x1="690" y1="359" x2="754" y2="330"/><line x1="219" y1="329" x2="322" y2="249"/><line x1="172" y1="228" x2="159" y2="153"/><line x1="742" y1="771" x2="613" y2="722"/><line x1="81" y1="509" x2="3" y2="398"/><line x1="577" y1="156" x2="646" y2="78"/><line x1="164" y1="76" x2="85" y2="0"/><line x1="717" y1="661" x2="794" y2="456"/><line x1="140" y1="463" x2="111" y2="323"/><line x1="609" y1="800" x2="631" y2="751"/><line x1="378" y1="787" x2="413" y2="710"/><line x1="408" y1="589" x2="461" y2="572"/><line x1="71" y1="706" x2="5" y2="688"/><line x1="462" y1="317" x2="464" y2="203"/><line x1="43" y1="76" x2="9" y2="0"/><line x1="739" y1="800" x2="748" y2="696"/><line x1="210" y1="666" x2="277" y2="577"/><line x1="495" y1="77" x2="595" y2="18"/><line x1="360" y1="800" x2="490" y2="707"/><line x1="264" y1="509" x2="255" y2="442"/><line x1="644" y1="298" x2="465" y2="202"/><line x1="706" y1="446" x2="674" y2="338"/><line x1="98" y1="59" x2="47" y2="9"/><line x1="286" y1="686" x2="312" y2="629"/><line x1="361" y1="396" x2="297" y2="285"/><line x1="367" y1="724" x2="497" y2="685"/><line x1="63" y1="187" x2="131" y2="92"/><line x1="85" y1="157" x2="93" y2="64"/><line x1="709" y1="146" x2="787" y2="76"/><line x1="654" y1="86" x2="599" y2="0"/><line x1="648" y1="39" x2="665" y2="0"/><line x1="547" y1="648" x2="582" y2="579"/><line x1="49" y1="548" x2="135" y2="440"/><line x1="703" y1="43" x2="623" y2="38"/><line x1="370" y1="104" x2="283" y2="91"/><line x1="474" y1="484" x2="483" y2="359"/><line x1="783" y1="306" x2="678" y2="238"/><line x1="81" y1="302" x2="0" y2="201"/><line x1="493" y1="592" x2="522" y2="553"/><line x1="354" y1="89" x2="415" y2="59"/><line x1="301" y1="458" x2="203" y2="303"/><line x1="299" y1="289" x2="387" y2="224"/><line x1="196" y1="279" x2="133" y2="147"/><line x1="604" y1="37" x2="586" y2="0"/><line x1="800" y1="600" x2="761" y2="597"/><line x1="505" y1="665" x2="605" y2="624"/><line x1="719" y1="230" x2="696" y2="43"/><line x1="297" y1="555" x2="233" y2="515"/><line x1="0" y1="312" x2="42" y2="254"/><line x1="115" y1="314" x2="253" y2="297"/><line x1="397" y1="715" x2="311" y2="617"/><line x1="766" y1="678" x2="800" y2="629"/><line x1="118" y1="570" x2="0" y2="531"/><line x1="250" y1="720" x2="364" y2="518"/><line x1="428" y1="616" x2="540" y2="574"/><line x1="706" y1="302" x2="659" y2="285"/><line x1="240" y1="219" x2="170" y2="218"/><line x1="485" y1="93" x2="297" y2="0"/><line x1="362" y1="396" x2="281" y2="343"/><line x1="263" y1="511" x2="289" y2="452"/><line x1="672" y1="466" x2="511" y2="368"/><line x1="800" y1="796" x2="770" y2="740"/><line x1="528" y1="222" x2="601" y2="188"/><line x1="55" y1="337" x2="147" y2="213"/><line x1="521" y1="516" x2="357" y2="405"/><line x1="769" y1="238" x2="776" y2="86"/><line x1="667" y1="473" x2="497" y2="364"/><line x1="270" y1="495" x2="305" y2="460"/><line x1="136" y1="780" x2="220" y2="624"/><line x1="238" y1="70" x2="232" y2="0"/><line x1="752" y1="651" x2="800" y2="619"/><line x1="800" y1="79" x2="709" y2="57"/><line x1="41" y1="55" x2="48" y2="0"/><line x1="659" y1="523" x2="800" y2="453"/><line x1="315" y1="588" x2="228" y2="563"/><line x1="541" y1="757" x2="496" y2="690"/><line x1="739" y1="413" x2="800" y2="372"/><line x1="800" y1="293" x2="611" y2="208"/><line x1="506" y1="800" x2="586" y2="699"/><line x1="166" y1="725" x2="271" y2="682"/><line x1="213" y1="583" x2="253" y2="528"/><line x1="754" y1="476" x2="744" y2="422"/><line x1="278" y1="791" x2="288" y2="652"/><line x1="404" y1="53" x2="539" y2="30"/><line x1="424" y1="247" x2="529" y2="132"/><line x1="237" y1="70" x2="229" y2="0"/><line x1="110" y1="220" x2="0" y2="143"/><line x1="417" y1="358" x2="308" y2="304"/><line x1="167" y1="219" x2="139" y2="210"/><line x1="693" y1="330" x2="718" y2="278"/><line x1="577" y1="199" x2="577" y2="116"/><line x1="0" y1="697" x2="30" y2="642"/><line x1="163" y1="73" x2="281" y2="68"/><line x1="668" y1="633" x2="634" y2="452"/><line x1="230" y1="639" x2="135" y2="500"/><line x1="349" y1="417" x2="264" y2="366"/><line x1="741" y1="324" x2="800" y2="299"/><line x1="689" y1="709" x2="618" y2="636"/><line x1="176" y1="126" x2="85" y2="58"/><line x1="481" y1="81" x2="608" y2="41"/><line x1="98" y1="224" x2="160" y2="203"/><line x1="558" y1="800" x2="598" y2="697"/><line x1="510" y1="711" x2="642" y2="691"/><line x1="193" y1="674" x2="303" y2="626"/><line x1="423" y1="584" x2="380" y2="483"/><line x1="349" y1="482" x2="129" y2="373"/><line x1="800" y1="63" x2="703" y2="44"/><line x1="319" y1="732" x2="311" y2="612"/><line x1="475" y1="471" x2="354" y2="326"/><line x1="708" y1="139" x2="589" y2="22"/><line x1="800" y1="350" x2="704" y2="307"/><line x1="504" y1="14" x2="517" y2="0"/><line x1="771" y1="468" x2="702" y2="353"/><line x1="776" y1="697" x2="734" y2="616"/><line x1="165" y1="726" x2="77" y2="574"/><line x1="397" y1="50" x2="377" y2="0"/><line x1="595" y1="576" x2="622" y2="560"/><line x1="288" y1="539" x2="384" y2="480"/><line x1="800" y1="614" x2="744" y2="590"/><line x1="251" y1="611" x2="171" y2="553"/><line x1="545" y1="214" x2="568" y2="54"/><line x1="11" y1="451" x2="0" y2="383"/><line x1="577" y1="578" x2="534" y2="483"/><line x1="768" y1="312" x2="618" y2="211"/><line x1="336" y1="262" x2="238" y2="167"/><line x1="486" y1="608" x2="568" y2="605"/><line x1="426" y1="618" x2="352" y2="500"/><line x1="0" y1="55" x2="28" y2="42"/><line x1="412" y1="596" x2="526" y2="542"/><line x1="97" y1="140" x2="108" y2="75"/><line x1="105" y1="264" x2="7" y2="209"/><line x1="337" y1="509" x2="357" y2="463"/><line x1="744" y1="800" x2="800" y2="668"/><line x1="600" y1="580" x2="517" y2="572"/><line x1="734" y1="123" x2="686" y2="0"/><line x1="561" y1="373" x2="688" y2="258"/><line x1="169" y1="214" x2="245" y2="189"/><line x1="33" y1="122" x2="0" y2="103"/><line x1="147" y1="327" x2="97" y2="321"/><line x1="0" y1="358" x2="202" y2="281"/><line x1="514" y1="634" x2="317" y2="624"/><line x1="552" y1="166" x2="521" y2="120"/><line x1="197" y1="279" x2="316" y2="242"/><line x1="285" y1="213" x2="395" y2="211"/><line x1="538" y1="226" x2="601" y2="188"/><line x1="149" y1="756" x2="284" y2="707"/><line x1="554" y1="151" x2="619" y2="52"/><line x1="622" y1="601" x2="562" y2="545"/><line x1="107" y1="267" x2="0" y2="145"/><line x1="463" y1="296" x2="306" y2="94"/><line x1="146" y1="516" x2="329" y2="514"/><line x1="123" y1="381" x2="182" y2="312"/><line x1="268" y1="515" x2="187" y2="449"/><line x1="51" y1="800" x2="45" y2="699"/><line x1="25" y1="161" x2="47" y2="56"/><line x1="103" y1="227" x2="145" y2="212"/><line x1="111" y1="724" x2="10" y2="678"/></g></svg>